<?xml version="1.0" encoding="UTF-8"?>
<svg xmlns="http://www.w3.org/2000/svg" xmlns:xlink="http://www.w3.org/1999/xlink" width="20pt" height="20pt" viewBox="0 0 20 20" version="1.1">
<g id="surface1">
<path style=" stroke:none;fill-rule:nonzero;fill:rgb(0%,0%,0%);fill-opacity:1;" d="M 3.75 13.761719 L 3.75 11.269531 L 5.703125 13.222656 L 8.203125 10.722656 L 8.738281 11.261719 L 9.277344 11.796875 L 6.777344 14.296875 L 8.730469 16.25 L 3.75 16.25 Z M 3.75 13.761719 "/>
<path style=" stroke:none;fill-rule:nonzero;fill:rgb(0%,0%,0%);fill-opacity:1;" d="M 12.246094 15.273438 L 13.222656 14.296875 L 10.722656 11.796875 L 11.261719 11.261719 L 11.796875 10.722656 L 14.296875 13.222656 L 16.25 11.269531 L 16.25 16.25 L 11.269531 16.25 Z M 12.246094 15.273438 "/>
<path style=" stroke:none;fill-rule:nonzero;fill:rgb(0%,0%,0%);fill-opacity:1;" d="M 6.941406 8.015625 L 5.703125 6.777344 L 3.75 8.730469 L 3.75 3.75 L 8.730469 3.75 L 6.777344 5.703125 L 9.257812 8.183594 L 8.183594 9.257812 Z M 6.941406 8.015625 "/>
<path style=" stroke:none;fill-rule:nonzero;fill:rgb(0%,0%,0%);fill-opacity:1;" d="M 11.261719 8.738281 L 10.722656 8.203125 L 13.222656 5.703125 L 11.269531 3.75 L 16.25 3.75 L 16.25 8.730469 L 14.296875 6.777344 L 11.800781 9.273438 Z M 11.261719 8.738281 "/>
</g>
</svg>
